<?xml version="1.0" standalone="no"?>
<!DOCTYPE svg PUBLIC "-//W3C//DTD SVG 20010904//EN"
 "http://www.w3.org/TR/2001/REC-SVG-20010904/DTD/svg10.dtd">
<svg version="1.0" xmlns="http://www.w3.org/2000/svg"
 width="214.000000pt" height="214.000000pt" viewBox="0 0 214.000000 214.000000"
 preserveAspectRatio="xMidYMid meet">
<metadata>
Created by potrace 1.14, written by Peter Selinger 2001-2017
</metadata>
<g transform="translate(0.000000,214.000000) scale(0.100000,-0.100000)"
fill="#000000" stroke="none">
<path d="M444 1561 c-32 -20 -67 -40 -76 -44 -23 -8 -23 -28 3 -71 l20 -35
-195 -337 -196 -338 30 -19 c30 -19 38 -41 20 -52 -17 -11 -11 -20 28 -40 20
-11 58 -33 85 -49 26 -16 49 -27 51 -25 2 2 21 36 43 74 100 177 277 481 287
492 8 9 33 -26 99 -142 95 -166 94 -161 47 -218 -13 -16 -13 -20 0 -28 43 -25
43 -25 24 -54 -10 -16 -14 -30 -9 -32 6 -2 44 -23 85 -48 l75 -45 18 22 c14
17 20 19 27 9 6 -11 26 -3 91 34 46 26 86 49 87 51 2 1 -12 30 -32 64 -20 33
-36 64 -36 67 0 6 163 293 186 327 12 17 13 16 28 -11 14 -28 13 -32 -15 -81
l-29 -51 29 -17 c24 -14 28 -21 21 -39 -7 -19 0 -27 71 -68 44 -26 84 -47 88
-47 4 0 26 34 50 76 24 41 52 84 64 94 11 11 18 23 14 26 -5 6 34 84 53 107 6
7 92 -130 122 -193 4 -8 45 -78 91 -155 75 -127 85 -140 109 -137 20 2 28 -4
38 -28 7 -16 15 -30 18 -30 4 0 153 84 170 96 3 2 -199 356 -269 472 -22 35
-39 66 -39 69 0 2 -21 38 -46 80 -41 67 -45 79 -35 101 7 13 10 25 9 26 -55
34 -59 38 -47 52 15 19 11 23 -80 75 -59 33 -78 39 -90 30 -9 -6 -46 -29 -84
-51 l-67 -41 24 -42 25 -42 -30 -53 c-17 -28 -32 -52 -35 -52 -2 0 -10 13 -18
28 -13 26 -13 31 5 58 24 37 24 38 -7 53 -25 11 -25 12 -10 37 9 13 14 29 11
33 -3 5 -41 30 -85 55 l-79 46 -86 -50 -85 -51 25 -43 c14 -23 25 -48 25 -54
0 -9 -155 -282 -184 -323 -11 -16 -17 -11 -52 49 -21 37 -41 72 -43 77 -2 6
-23 43 -47 82 -45 74 -52 97 -34 108 17 11 11 22 -20 35 -34 14 -33 11 -20 44
10 28 8 30 -111 98 l-45 27 -60 -38z"/>
</g>
</svg>
